<?xml version="1.0" standalone="no"?>
<!DOCTYPE svg PUBLIC "-//W3C//DTD SVG 20010904//EN"
 "http://www.w3.org/TR/2001/REC-SVG-20010904/DTD/svg10.dtd">
<svg version="1.0" xmlns="http://www.w3.org/2000/svg"
 width="450.000000pt" height="412.000000pt" viewBox="0 0 450.000000 412.000000"
 preserveAspectRatio="xMidYMid meet">

<g transform="translate(0.000000,412.000000) scale(0.100000,-0.100000)"
fill="#000000" stroke="none">
<path d="M0 2060 l0 -2060 2250 0 2250 0 0 2060 0 2060 -2250 0 -2250 0 0
-2060z m3730 597 c0 -66 -17 -111 -61 -161 l-42 -47 22 -15 c39 -28 121 -156
141 -222 29 -94 28 -245 -4 -333 -53 -151 -171 -266 -327 -320 -94 -32 -229
-31 -326 3 -214 76 -348 267 -347 493 0 142 49 260 149 360 87 87 135 107 472
204 169 48 311 86 316 84 4 -2 7 -23 7 -46z m-2907 -45 c24 -17 53 -51 68 -79
l26 -49 34 21 c19 12 61 32 94 45 78 30 232 34 315 8 95 -30 95 -27 0 -123
l-85 -85 -55 0 c-78 0 -141 -24 -199 -76 -65 -59 -93 -118 -94 -197 -1 -73 15
-126 54 -183 56 -82 174 -133 273 -119 47 7 144 58 152 80 3 7 -4 43 -15 80
-15 46 -21 94 -21 154 0 146 43 254 143 359 286 297 775 158 876 -250 l17 -70
39 87 c72 163 176 241 334 252 l82 6 -10 -24 c-30 -78 -287 -662 -308 -701
-37 -68 -130 -153 -206 -189 -67 -31 -181 -58 -194 -46 -4 4 3 28 15 52 20 40
30 95 18 95 -3 0 -20 -9 -38 -19 -148 -86 -350 -86 -509 1 l-56 31 -69 -41
c-108 -63 -177 -82 -291 -82 -115 0 -196 24 -287 85 -104 69 -188 191 -214
310 -6 28 -14 198 -17 379 l-7 329 47 -5 c30 -4 62 -17 88 -36z m2877 -1099
c0 -72 -41 -149 -96 -184 -38 -23 -639 -200 -649 -191 -12 12 -3 110 14 147
32 72 84 107 206 143 61 18 193 56 295 86 102 30 195 54 208 55 20 1 22 -3 22
-56z"/>
<path d="M3206 2324 c-71 -22 -159 -112 -180 -184 -34 -115 -12 -206 73 -291
85 -85 176 -107 291 -73 75 22 162 109 184 184 34 115 12 206 -73 291 -85 84
-180 108 -295 73z"/>
<path d="M1810 2371 c-135 -44 -214 -149 -213 -281 0 -115 58 -206 161 -257
47 -23 70 -28 127 -27 118 1 203 53 254 156 73 146 16 314 -133 390 -44 23
-153 33 -196 19z"/>
</g>
</svg>
